<mxfile host="app.diagrams.net" modified="2024-06-26T15:08:34.029Z" agent="Mozilla/5.0 (Windows NT 10.0; Win64; x64) AppleWebKit/537.36 (KHTML, like Gecko) Chrome/126.0.0.0 Safari/537.36 Edg/126.0.0.0" version="24.6.0" etag="3K2DjFHm7UWXZ-OaIJ5p" type="github">
  <diagram name="Page-1" id="nJDgUwrnOSIUj7F3WHgM">
    <mxGraphModel>
      <root>
        <mxCell id="0" />
        <mxCell id="1" parent="0" />
      </root>
    </mxGraphModel>
  </diagram>
</mxfile>
